# Blender v2.81 (sub 16) OBJ File: 'untitled.blend'
# www.blender.org
mtllib untitled.mtl
o Cube
v 99.858086 4.996927 14.767071
v 99.858086 2.999886 14.745190
v 99.858086 6.346428 -108.405243
v 99.858086 4.349386 -108.427124
v -99.858086 4.996927 14.767071
v -99.858086 2.999886 14.745190
v -99.858086 6.346428 -108.405243
v -99.858086 4.349386 -108.427124
vt 1.086858 0.500000
vt 0.695619 0.500000
vt 0.695619 0.891239
vt 0.304381 0.891239
vt 0.304381 1.282477
vt 0.695619 -0.282477
vt 0.304381 -0.282477
vt 0.304381 0.108761
vt 0.304381 0.500000
vt -0.086858 0.500000
vt -0.086858 0.891239
vt 0.695619 0.108761
vt 1.086858 0.891239
vt 0.695619 1.282477
vn 0.0000 0.9999 0.0110
vn 0.0000 0.0110 -0.9999
vn -1.0000 0.0000 0.0000
vn 0.0000 -0.9999 -0.0110
vn 1.0000 0.0000 0.0000
vn 0.0000 -0.0110 0.9999
usemtl Material
s off
f 5/1/1 1/2/1 3/3/1
f 3/3/2 4/4/2 8/5/2
f 7/6/3 8/7/3 6/8/3
f 2/9/4 6/10/4 8/11/4
f 1/2/5 2/9/5 4/4/5
f 5/12/6 6/8/6 2/9/6
f 5/1/1 3/3/1 7/13/1
f 3/3/2 8/5/2 7/14/2
f 7/6/3 6/8/3 5/12/3
f 2/9/4 8/11/4 4/4/4
f 1/2/5 4/4/5 3/3/5
f 5/12/6 2/9/6 1/2/6
o Cylinder
v -5.352723 4.764850 6.713473
v -5.352723 17.644547 6.854586
v -4.886728 4.764347 6.759367
v -4.886728 17.644043 6.900479
v -4.438643 4.762858 6.895284
v -4.438643 17.642555 7.036397
v -4.025683 4.760439 7.116002
v -4.025683 17.640137 7.257114
v -3.663723 4.757185 7.413038
v -3.663723 17.636883 7.554151
v -3.366668 4.753220 7.774978
v -3.366668 17.632915 7.916090
v -3.145938 4.748695 8.187911
v -3.145938 17.628391 8.329023
v -3.010012 4.743786 8.635970
v -3.010012 17.623484 8.777083
v -2.964116 4.738681 9.101936
v -2.964116 17.618378 9.243049
v -3.010012 4.733576 9.567903
v -3.010012 17.613274 9.709015
v -3.145937 4.728667 10.015962
v -3.145937 17.608364 10.157074
v -3.366668 4.724143 10.428896
v -3.366668 17.603840 10.570008
v -3.663723 4.720177 10.790835
v -3.663723 17.599874 10.931948
v -4.025684 4.716923 11.087872
v -4.025684 17.596621 11.228985
v -4.438643 4.714505 11.308590
v -4.438643 17.594202 11.449702
v -4.886729 4.713016 11.444507
v -4.886729 17.592712 11.585619
v -5.352724 4.712513 11.490400
v -5.352724 17.592209 11.631513
v -5.818718 4.713016 11.444507
v -5.818718 17.592712 11.585619
v -6.266804 4.714505 11.308589
v -6.266804 17.594202 11.449701
v -6.679763 4.716923 11.087871
v -6.679763 17.596621 11.228983
v -7.041724 4.720178 10.790834
v -7.041724 17.599874 10.931947
v -7.338778 4.724143 10.428895
v -7.338778 17.603840 10.570007
v -7.559508 4.728667 10.015961
v -7.559508 17.608364 10.157073
v -7.695434 4.733576 9.567901
v -7.695434 17.613274 9.709013
v -7.741330 4.738681 9.101934
v -7.741330 17.618378 9.243047
v -7.695433 4.743786 8.635968
v -7.695433 17.623484 8.777081
v -7.559506 4.748695 8.187909
v -7.559506 17.628391 8.329021
v -7.338775 4.753220 7.774975
v -7.338775 17.632915 7.916088
v -7.041721 4.757185 7.413035
v -7.041721 17.636883 7.554148
v -6.679759 4.760440 7.116000
v -6.679759 17.640137 7.257113
v -6.266800 4.762858 6.895283
v -6.266800 17.642555 7.036395
v -5.818713 4.764347 6.759366
v -5.818713 17.644043 6.900478
vt 1.401665 1.200832
vt 1.345311 0.299168
vt 1.401665 0.299168
vt 1.345311 1.200832
vt 1.288957 0.299168
vt 1.288957 1.200832
vt 1.232603 0.299168
vt 1.232603 1.200832
vt 1.176249 0.299168
vt 1.176249 1.200832
vt 1.119895 0.299168
vt 1.119895 1.200832
vt 1.063541 0.299168
vt 1.063541 1.200832
vt 1.007187 0.299168
vt 1.007187 1.200832
vt 0.950833 0.299168
vt 0.950833 1.200832
vt 0.894478 0.299168
vt 0.894478 1.200832
vt 0.838124 0.299168
vt 0.838124 1.200832
vt 0.781770 0.299168
vt 0.781770 1.200832
vt 0.725416 0.299168
vt 0.725416 1.200832
vt 0.669062 0.299168
vt 0.669062 1.200832
vt 0.612708 0.299168
vt 0.612708 1.200832
vt 0.556354 0.299168
vt 0.556354 1.200832
vt 0.500000 0.299168
vt 0.500000 1.200832
vt 0.443646 0.299168
vt 0.443646 1.200832
vt 0.387292 0.299168
vt 0.387292 1.200832
vt 0.330938 0.299168
vt 0.330938 1.200832
vt 0.274584 0.299168
vt 0.274584 1.200832
vt 0.218230 0.299168
vt 0.218230 1.200832
vt 0.161876 0.299168
vt 0.161876 1.200832
vt 0.105522 0.299168
vt 0.105522 1.200832
vt 0.049167 0.299168
vt 0.049167 1.200832
vt -0.007187 0.299168
vt -0.007187 1.200832
vt -0.063541 0.299168
vt -0.063541 1.200832
vt -0.119895 0.299168
vt -0.119895 1.200832
vt -0.176249 0.299168
vt -0.176249 1.200832
vt -0.232603 0.299168
vt -0.232603 1.200832
vt -0.288957 0.299168
vt 0.028269 0.341844
vt 0.158156 0.028269
vt 0.471731 0.158156
vt -0.288957 1.200832
vt -0.345311 0.299168
vt -0.345311 1.200832
vt -0.401665 0.299168
vt 0.985388 0.296822
vt 0.796822 0.014612
vt 0.514611 0.203179
vt 0.341844 0.471731
vt 0.296822 0.485388
vt 0.250000 0.490000
vt 0.203179 0.485389
vt 0.158156 0.471731
vt 0.116663 0.449553
vt 0.080295 0.419706
vt 0.050447 0.383337
vt 0.014612 0.296822
vt 0.010000 0.250000
vt 0.014611 0.203179
vt 0.028269 0.158156
vt 0.050447 0.116663
vt 0.080294 0.080294
vt 0.116663 0.050447
vt 0.203178 0.014612
vt 0.250000 0.010000
vt 0.296822 0.014612
vt 0.341844 0.028269
vt 0.383337 0.050447
vt 0.419706 0.080294
vt 0.449553 0.116663
vt 0.485388 0.203178
vt 0.490000 0.250000
vt 0.485388 0.296822
vt 0.471731 0.341844
vt 0.449553 0.383337
vt 0.419706 0.419706
vt 0.383337 0.449553
vt -0.401665 1.200832
vt 0.703179 0.485389
vt 0.750000 0.490000
vt 0.796822 0.485388
vt 0.841844 0.471731
vt 0.883337 0.449553
vt 0.919706 0.419706
vt 0.949553 0.383337
vt 0.971731 0.341844
vt 0.990000 0.250000
vt 0.985388 0.203178
vt 0.971731 0.158156
vt 0.949553 0.116663
vt 0.919706 0.080294
vt 0.883337 0.050447
vt 0.841844 0.028269
vt 0.750000 0.010000
vt 0.703178 0.014612
vt 0.658156 0.028269
vt 0.616663 0.050447
vt 0.580294 0.080294
vt 0.550447 0.116663
vt 0.528269 0.158156
vt 0.510000 0.250000
vt 0.514612 0.296822
vt 0.528269 0.341844
vt 0.550447 0.383337
vt 0.580295 0.419706
vt 0.616663 0.449553
vt 0.658156 0.471731
vn 0.0980 0.0109 -0.9951
vn 0.2903 0.0105 -0.9569
vn 0.4714 0.0097 -0.8819
vn 0.6344 0.0085 -0.7730
vn 0.7730 0.0070 -0.6344
vn 0.8819 0.0052 -0.4714
vn 0.9569 0.0032 -0.2903
vn 0.9952 0.0011 -0.0980
vn 0.9952 -0.0011 0.0980
vn 0.9569 -0.0032 0.2903
vn 0.8819 -0.0052 0.4714
vn 0.7730 -0.0070 0.6344
vn 0.6344 -0.0085 0.7730
vn 0.4714 -0.0097 0.8819
vn 0.2903 -0.0105 0.9569
vn 0.0980 -0.0109 0.9951
vn -0.0980 -0.0109 0.9951
vn -0.2903 -0.0105 0.9569
vn -0.4714 -0.0097 0.8819
vn -0.6344 -0.0085 0.7730
vn -0.7730 -0.0070 0.6344
vn -0.8819 -0.0052 0.4714
vn -0.9569 -0.0032 0.2903
vn -0.9952 -0.0011 0.0980
vn -0.9952 0.0011 -0.0980
vn -0.9569 0.0032 -0.2903
vn -0.8819 0.0052 -0.4714
vn -0.7730 0.0070 -0.6344
vn -0.6344 0.0085 -0.7730
vn -0.4714 0.0097 -0.8819
vn -0.0000 0.9999 0.0110
vn -0.2903 0.0105 -0.9569
vn -0.0980 0.0109 -0.9951
vn -0.0000 -0.9999 -0.0110
vn 0.0000 0.9999 0.0109
vn 0.0000 -0.9999 -0.0109
usemtl Material.001
s off
f 10/15/7 11/16/7 9/17/7
f 12/18/8 13/19/8 11/16/8
f 14/20/9 15/21/9 13/19/9
f 16/22/10 17/23/10 15/21/10
f 18/24/11 19/25/11 17/23/11
f 20/26/12 21/27/12 19/25/12
f 22/28/13 23/29/13 21/27/13
f 24/30/14 25/31/14 23/29/14
f 26/32/15 27/33/15 25/31/15
f 28/34/16 29/35/16 27/33/16
f 30/36/17 31/37/17 29/35/17
f 32/38/18 33/39/18 31/37/18
f 34/40/19 35/41/19 33/39/19
f 36/42/20 37/43/20 35/41/20
f 38/44/21 39/45/21 37/43/21
f 40/46/22 41/47/22 39/45/22
f 42/48/23 43/49/23 41/47/23
f 44/50/24 45/51/24 43/49/24
f 46/52/25 47/53/25 45/51/25
f 48/54/26 49/55/26 47/53/26
f 50/56/27 51/57/27 49/55/27
f 52/58/28 53/59/28 51/57/28
f 54/60/29 55/61/29 53/59/29
f 56/62/30 57/63/30 55/61/30
f 58/64/31 59/65/31 57/63/31
f 60/66/32 61/67/32 59/65/32
f 62/68/33 63/69/33 61/67/33
f 64/70/34 65/71/34 63/69/34
f 66/72/35 67/73/35 65/71/35
f 68/74/36 69/75/36 67/73/36
f 62/76/37 46/77/37 30/78/37
f 70/79/38 71/80/38 69/75/38
f 72/81/39 9/82/39 71/80/39
f 23/83/40 39/84/40 55/85/40
f 10/15/7 12/18/7 11/16/7
f 12/18/8 14/20/8 13/19/8
f 14/20/9 16/22/9 15/21/9
f 16/22/10 18/24/10 17/23/10
f 18/24/11 20/26/11 19/25/11
f 20/26/12 22/28/12 21/27/12
f 22/28/13 24/30/13 23/29/13
f 24/30/14 26/32/14 25/31/14
f 26/32/15 28/34/15 27/33/15
f 28/34/16 30/36/16 29/35/16
f 30/36/17 32/38/17 31/37/17
f 32/38/18 34/40/18 33/39/18
f 34/40/19 36/42/19 35/41/19
f 36/42/20 38/44/20 37/43/20
f 38/44/21 40/46/21 39/45/21
f 40/46/22 42/48/22 41/47/22
f 42/48/23 44/50/23 43/49/23
f 44/50/24 46/52/24 45/51/24
f 46/52/25 48/54/25 47/53/25
f 48/54/26 50/56/26 49/55/26
f 50/56/27 52/58/27 51/57/27
f 52/58/28 54/60/28 53/59/28
f 54/60/29 56/62/29 55/61/29
f 56/62/30 58/64/30 57/63/30
f 58/64/31 60/66/31 59/65/31
f 60/66/32 62/68/32 61/67/32
f 62/68/33 64/70/33 63/69/33
f 64/70/34 66/72/34 65/71/34
f 66/72/35 68/74/35 67/73/35
f 68/74/36 70/79/36 69/75/36
f 14/86/37 12/87/37 10/88/37
f 10/88/37 72/89/37 14/86/37
f 72/89/41 70/90/41 14/86/41
f 70/90/41 68/91/41 66/92/41
f 66/92/41 64/93/41 62/76/41
f 62/76/37 60/94/37 58/95/37
f 58/95/37 56/96/37 62/76/37
f 56/96/37 54/97/37 62/76/37
f 54/97/41 52/98/41 46/77/41
f 52/98/37 50/99/37 46/77/37
f 50/99/41 48/100/41 46/77/41
f 46/77/41 44/101/41 42/102/41
f 42/102/41 40/103/41 38/104/41
f 38/104/41 36/105/41 34/106/41
f 34/106/41 32/107/41 30/78/41
f 30/78/41 28/108/41 26/109/41
f 26/109/37 24/110/37 30/78/37
f 24/110/37 22/111/37 30/78/37
f 22/111/41 20/112/41 18/113/41
f 18/113/41 16/114/41 14/86/41
f 70/90/37 66/92/37 14/86/37
f 66/92/37 62/76/37 14/86/37
f 46/77/37 42/102/37 30/78/37
f 42/102/37 38/104/37 30/78/37
f 38/104/37 34/106/37 30/78/37
f 22/111/37 18/113/37 30/78/37
f 18/113/37 14/86/37 30/78/37
f 62/76/37 54/97/37 46/77/37
f 14/86/37 62/76/37 30/78/37
f 70/79/38 72/81/38 71/80/38
f 72/81/39 10/115/39 9/82/39
f 71/116/42 9/117/42 11/118/42
f 11/118/40 13/119/40 15/120/40
f 15/120/40 17/121/40 19/122/40
f 19/122/40 21/123/40 15/120/40
f 21/123/40 23/83/40 15/120/40
f 23/83/40 25/124/40 27/125/40
f 27/125/40 29/126/40 23/83/40
f 29/126/40 31/127/40 23/83/40
f 31/127/40 33/128/40 39/84/40
f 33/128/40 35/129/40 39/84/40
f 35/129/42 37/130/42 39/84/42
f 39/84/40 41/131/40 43/132/40
f 43/132/40 45/133/40 47/134/40
f 47/134/40 49/135/40 51/136/40
f 51/136/40 53/137/40 55/85/40
f 55/85/40 57/138/40 59/139/40
f 59/139/40 61/140/40 63/141/40
f 63/141/40 65/142/40 71/116/40
f 65/142/40 67/143/40 71/116/40
f 67/143/40 69/144/40 71/116/40
f 71/116/40 11/118/40 15/120/40
f 39/84/40 43/132/40 55/85/40
f 43/132/40 47/134/40 55/85/40
f 47/134/40 51/136/40 55/85/40
f 55/85/40 59/139/40 71/116/40
f 59/139/40 63/141/40 71/116/40
f 71/116/40 15/120/40 23/83/40
f 23/83/40 31/127/40 39/84/40
f 71/116/40 23/83/40 55/85/40
o Cube.001
v 20.518738 13.397426 15.042455
v 20.518738 13.401808 14.642479
v 20.518738 4.357801 14.943413
v 20.518738 4.362184 14.543437
v -19.481262 13.397426 15.042455
v -19.481262 13.401808 14.642479
v -19.481262 4.357801 14.943413
v -19.481262 4.362184 14.543437
vt 1.086858 0.500000
vt 0.695619 0.891239
vt 0.695619 0.500000
vt 0.304381 1.282477
vt 0.304381 0.891239
vt 0.695619 -0.282477
vt 0.304381 0.108761
vt 0.304381 -0.282477
vt 0.304381 0.500000
vt -0.086858 0.891239
vt -0.086858 0.500000
vt 0.695619 0.108761
vt 1.086858 0.891239
vt 0.695619 1.282477
vn 0.0000 -0.0110 0.9999
vn 0.0000 -0.9999 -0.0110
vn -1.0000 0.0000 0.0000
vn 0.0000 0.0110 -0.9999
vn 1.0000 0.0000 0.0000
vn 0.0000 0.9999 0.0110
vn 0.0000 0.9999 0.0109
usemtl Material
s off
f 77/145/43 75/146/43 73/147/43
f 75/146/44 80/148/44 76/149/44
f 79/150/45 78/151/45 80/152/45
f 74/153/46 80/154/46 78/155/46
f 73/147/47 76/149/47 74/153/47
f 77/156/48 74/153/48 78/151/48
f 77/145/43 79/157/43 75/146/43
f 75/146/44 79/158/44 80/148/44
f 79/150/45 77/156/45 78/151/45
f 74/153/46 76/149/46 80/154/46
f 73/147/47 75/146/47 76/149/47
f 77/156/49 73/147/49 74/153/49
