# Blender v2.81 (sub 16) OBJ File: 'untitled.blend'
# www.blender.org
mtllib untitled.mtl
o Cube
v 99.858086 4.996927 14.767071
v 99.858086 2.999886 14.745190
v 99.858086 6.346428 -108.405243
v 99.858086 4.349386 -108.427124
v -99.858086 4.996927 14.767071
v -99.858086 2.999886 14.745190
v -99.858086 6.346428 -108.405243
v -99.858086 4.349386 -108.427124
vt 1.086858 0.500000
vt 0.695619 0.500000
vt 0.695619 0.891239
vt 0.304381 0.891239
vt 0.304381 1.282477
vt 0.695619 -0.282477
vt 0.304381 -0.282477
vt 0.304381 0.108761
vt 0.304381 0.500000
vt -0.086858 0.500000
vt -0.086858 0.891239
vt 0.695619 0.108761
vt 1.086858 0.891239
vt 0.695619 1.282477
vn 0.0000 0.9999 0.0110
vn 0.0000 0.0110 -0.9999
vn -1.0000 0.0000 0.0000
vn 0.0000 -0.9999 -0.0110
vn 1.0000 0.0000 0.0000
vn 0.0000 -0.0110 0.9999
usemtl Material
s off
f 5/1/1 1/2/1 3/3/1
f 3/3/2 4/4/2 8/5/2
f 7/6/3 8/7/3 6/8/3
f 2/9/4 6/10/4 8/11/4
f 1/2/5 2/9/5 4/4/5
f 5/12/6 6/8/6 2/9/6
f 5/1/1 3/3/1 7/13/1
f 3/3/2 8/5/2 7/14/2
f 7/6/3 6/8/3 5/12/3
f 2/9/4 8/11/4 4/4/4
f 1/2/5 4/4/5 3/3/5
f 5/12/6 2/9/6 1/2/6
o Cylinder
v -14.413004 5.205382 -21.708466
v -14.413004 18.085079 -21.567352
v -13.947010 5.204880 -21.662571
v -13.947010 18.084576 -21.521460
v -13.498923 5.203391 -21.526653
v -13.498923 18.083088 -21.385542
v -13.085965 5.200972 -21.305937
v -13.085965 18.080669 -21.164824
v -12.724004 5.197718 -21.008900
v -12.724004 18.077415 -20.867788
v -12.426950 5.193752 -20.646961
v -12.426950 18.073448 -20.505848
v -12.206219 5.189228 -20.234026
v -12.206219 18.068924 -20.092915
v -12.070293 5.184319 -19.785967
v -12.070293 18.064016 -19.644855
v -12.024397 5.179214 -19.320002
v -12.024397 18.058910 -19.178888
v -12.070293 5.174109 -18.854034
v -12.070293 18.053806 -18.712923
v -12.206219 5.169200 -18.405975
v -12.206219 18.048897 -18.264864
v -12.426950 5.164676 -17.993042
v -12.426950 18.044373 -17.851929
v -12.724004 5.160710 -17.631102
v -12.724004 18.040407 -17.489990
v -13.085965 5.157456 -17.334066
v -13.085965 18.037153 -17.192953
v -13.498924 5.155037 -17.113348
v -13.498924 18.034735 -16.972237
v -13.947010 5.153548 -16.977430
v -13.947010 18.033245 -16.836319
v -14.413005 5.153046 -16.931538
v -14.413005 18.032742 -16.790424
v -14.878999 5.153548 -16.977432
v -14.878999 18.033245 -16.836319
v -15.327085 5.155037 -17.113350
v -15.327085 18.034735 -16.972237
v -15.740044 5.157456 -17.334066
v -15.740044 18.037153 -17.192955
v -16.102005 5.160710 -17.631104
v -16.102005 18.040407 -17.489990
v -16.399059 5.164676 -17.993044
v -16.399059 18.044373 -17.851931
v -16.619789 5.169200 -18.405977
v -16.619789 18.048897 -18.264866
v -16.755714 5.174109 -18.854036
v -16.755714 18.053806 -18.712925
v -16.801611 5.179214 -19.320004
v -16.801611 18.058910 -19.178890
v -16.755714 5.184319 -19.785971
v -16.755714 18.064016 -19.644857
v -16.619787 5.189228 -20.234030
v -16.619787 18.068924 -20.092916
v -16.399055 5.193752 -20.646963
v -16.399055 18.073448 -20.505850
v -16.102001 5.197718 -21.008902
v -16.102001 18.077415 -20.867790
v -15.740040 5.200973 -21.305939
v -15.740040 18.080669 -21.164825
v -15.327081 5.203391 -21.526655
v -15.327081 18.083088 -21.385544
v -14.878994 5.204880 -21.662571
v -14.878994 18.084576 -21.521460
vt 1.401665 1.200832
vt 1.345311 0.299168
vt 1.401665 0.299168
vt 1.345311 1.200832
vt 1.288957 0.299168
vt 1.288957 1.200832
vt 1.232603 0.299168
vt 1.232603 1.200832
vt 1.176249 0.299168
vt 1.176249 1.200832
vt 1.119895 0.299168
vt 1.119895 1.200832
vt 1.063541 0.299168
vt 1.063541 1.200832
vt 1.007187 0.299168
vt 1.007187 1.200832
vt 0.950833 0.299168
vt 0.950833 1.200832
vt 0.894478 0.299168
vt 0.894478 1.200832
vt 0.838124 0.299168
vt 0.838124 1.200832
vt 0.781770 0.299168
vt 0.781770 1.200832
vt 0.725416 0.299168
vt 0.725416 1.200832
vt 0.669062 0.299168
vt 0.669062 1.200832
vt 0.612708 0.299168
vt 0.612708 1.200832
vt 0.556354 0.299168
vt 0.556354 1.200832
vt 0.500000 0.299168
vt 0.500000 1.200832
vt 0.443646 0.299168
vt 0.443646 1.200832
vt 0.387292 0.299168
vt 0.387292 1.200832
vt 0.330938 0.299168
vt 0.330938 1.200832
vt 0.274584 0.299168
vt 0.274584 1.200832
vt 0.218230 0.299168
vt 0.218230 1.200832
vt 0.161876 0.299168
vt 0.161876 1.200832
vt 0.105522 0.299168
vt 0.105522 1.200832
vt 0.049167 0.299168
vt 0.049167 1.200832
vt -0.007187 0.299168
vt -0.007187 1.200832
vt -0.063541 0.299168
vt -0.063541 1.200832
vt -0.119895 0.299168
vt -0.119895 1.200832
vt -0.176249 0.299168
vt -0.176249 1.200832
vt -0.232603 0.299168
vt -0.232603 1.200832
vt -0.288957 0.299168
vt 0.028269 0.341844
vt 0.158156 0.028269
vt 0.471731 0.158156
vt -0.288957 1.200832
vt -0.345311 0.299168
vt -0.345311 1.200832
vt -0.401665 0.299168
vt 0.985388 0.296822
vt 0.796822 0.014612
vt 0.514611 0.203179
vt 0.341844 0.471731
vt 0.296822 0.485388
vt 0.250000 0.490000
vt 0.203179 0.485389
vt 0.158156 0.471731
vt 0.116663 0.449553
vt 0.080295 0.419706
vt 0.050447 0.383337
vt 0.014612 0.296822
vt 0.010000 0.250000
vt 0.014611 0.203179
vt 0.028269 0.158156
vt 0.050447 0.116663
vt 0.080294 0.080294
vt 0.116663 0.050447
vt 0.203178 0.014612
vt 0.250000 0.010000
vt 0.296822 0.014612
vt 0.341844 0.028269
vt 0.383337 0.050447
vt 0.419706 0.080294
vt 0.449553 0.116663
vt 0.485388 0.203178
vt 0.490000 0.250000
vt 0.485388 0.296822
vt 0.471731 0.341844
vt 0.449553 0.383337
vt 0.419706 0.419706
vt 0.383337 0.449553
vt -0.401665 1.200832
vt 0.703179 0.485389
vt 0.750000 0.490000
vt 0.796822 0.485388
vt 0.841844 0.471731
vt 0.883337 0.449553
vt 0.919706 0.419706
vt 0.949553 0.383337
vt 0.971731 0.341844
vt 0.990000 0.250000
vt 0.985388 0.203178
vt 0.971731 0.158156
vt 0.949553 0.116663
vt 0.919706 0.080294
vt 0.883337 0.050447
vt 0.841844 0.028269
vt 0.750000 0.010000
vt 0.703178 0.014612
vt 0.658156 0.028269
vt 0.616663 0.050447
vt 0.580294 0.080294
vt 0.550447 0.116663
vt 0.528269 0.158156
vt 0.510000 0.250000
vt 0.514612 0.296822
vt 0.528269 0.341844
vt 0.550447 0.383337
vt 0.580295 0.419706
vt 0.616663 0.449553
vt 0.658156 0.471731
vn 0.0980 0.0109 -0.9951
vn 0.2903 0.0105 -0.9569
vn 0.4714 0.0097 -0.8819
vn 0.6344 0.0085 -0.7730
vn 0.7730 0.0070 -0.6344
vn 0.8819 0.0052 -0.4714
vn 0.9569 0.0032 -0.2903
vn 0.9952 0.0011 -0.0980
vn 0.9952 -0.0011 0.0980
vn 0.9569 -0.0032 0.2903
vn 0.8819 -0.0052 0.4714
vn 0.7730 -0.0070 0.6344
vn 0.6344 -0.0085 0.7730
vn 0.4714 -0.0097 0.8819
vn 0.2903 -0.0105 0.9569
vn 0.0980 -0.0109 0.9951
vn -0.0980 -0.0109 0.9951
vn -0.2903 -0.0105 0.9569
vn -0.4714 -0.0097 0.8819
vn -0.6344 -0.0085 0.7730
vn -0.7730 -0.0070 0.6344
vn -0.8819 -0.0052 0.4714
vn -0.9569 -0.0032 0.2903
vn -0.9952 -0.0011 0.0980
vn -0.9952 0.0011 -0.0980
vn -0.9569 0.0032 -0.2903
vn -0.8819 0.0052 -0.4714
vn -0.7730 0.0070 -0.6344
vn -0.6344 0.0085 -0.7730
vn -0.4714 0.0097 -0.8819
vn -0.0000 0.9999 0.0110
vn -0.2903 0.0105 -0.9569
vn -0.0980 0.0109 -0.9951
vn -0.0000 -0.9999 -0.0110
vn -0.0000 0.9999 0.0109
vn 0.0000 -0.9999 -0.0109
usemtl Material.001
s off
f 10/15/7 11/16/7 9/17/7
f 12/18/8 13/19/8 11/16/8
f 14/20/9 15/21/9 13/19/9
f 16/22/10 17/23/10 15/21/10
f 18/24/11 19/25/11 17/23/11
f 20/26/12 21/27/12 19/25/12
f 22/28/13 23/29/13 21/27/13
f 24/30/14 25/31/14 23/29/14
f 26/32/15 27/33/15 25/31/15
f 28/34/16 29/35/16 27/33/16
f 30/36/17 31/37/17 29/35/17
f 32/38/18 33/39/18 31/37/18
f 34/40/19 35/41/19 33/39/19
f 36/42/20 37/43/20 35/41/20
f 38/44/21 39/45/21 37/43/21
f 40/46/22 41/47/22 39/45/22
f 42/48/23 43/49/23 41/47/23
f 44/50/24 45/51/24 43/49/24
f 46/52/25 47/53/25 45/51/25
f 48/54/26 49/55/26 47/53/26
f 50/56/27 51/57/27 49/55/27
f 52/58/28 53/59/28 51/57/28
f 54/60/29 55/61/29 53/59/29
f 56/62/30 57/63/30 55/61/30
f 58/64/31 59/65/31 57/63/31
f 60/66/32 61/67/32 59/65/32
f 62/68/33 63/69/33 61/67/33
f 64/70/34 65/71/34 63/69/34
f 66/72/35 67/73/35 65/71/35
f 68/74/36 69/75/36 67/73/36
f 62/76/37 46/77/37 30/78/37
f 70/79/38 71/80/38 69/75/38
f 72/81/39 9/82/39 71/80/39
f 23/83/40 39/84/40 55/85/40
f 10/15/7 12/18/7 11/16/7
f 12/18/8 14/20/8 13/19/8
f 14/20/9 16/22/9 15/21/9
f 16/22/10 18/24/10 17/23/10
f 18/24/11 20/26/11 19/25/11
f 20/26/12 22/28/12 21/27/12
f 22/28/13 24/30/13 23/29/13
f 24/30/14 26/32/14 25/31/14
f 26/32/15 28/34/15 27/33/15
f 28/34/16 30/36/16 29/35/16
f 30/36/17 32/38/17 31/37/17
f 32/38/18 34/40/18 33/39/18
f 34/40/19 36/42/19 35/41/19
f 36/42/20 38/44/20 37/43/20
f 38/44/21 40/46/21 39/45/21
f 40/46/22 42/48/22 41/47/22
f 42/48/23 44/50/23 43/49/23
f 44/50/24 46/52/24 45/51/24
f 46/52/25 48/54/25 47/53/25
f 48/54/26 50/56/26 49/55/26
f 50/56/27 52/58/27 51/57/27
f 52/58/28 54/60/28 53/59/28
f 54/60/29 56/62/29 55/61/29
f 56/62/30 58/64/30 57/63/30
f 58/64/31 60/66/31 59/65/31
f 60/66/32 62/68/32 61/67/32
f 62/68/33 64/70/33 63/69/33
f 64/70/34 66/72/34 65/71/34
f 66/72/35 68/74/35 67/73/35
f 68/74/36 70/79/36 69/75/36
f 14/86/37 12/87/37 10/88/37
f 10/88/37 72/89/37 14/86/37
f 72/89/37 70/90/37 14/86/37
f 70/90/41 68/91/41 66/92/41
f 66/92/41 64/93/41 62/76/41
f 62/76/37 60/94/37 58/95/37
f 58/95/37 56/96/37 62/76/37
f 56/96/37 54/97/37 62/76/37
f 54/97/41 52/98/41 46/77/41
f 52/98/37 50/99/37 46/77/37
f 50/99/41 48/100/41 46/77/41
f 46/77/41 44/101/41 42/102/41
f 42/102/41 40/103/41 38/104/41
f 38/104/41 36/105/41 34/106/41
f 34/106/37 32/107/37 30/78/37
f 30/78/37 28/108/37 26/109/37
f 26/109/37 24/110/37 30/78/37
f 24/110/37 22/111/37 30/78/37
f 22/111/41 20/112/41 18/113/41
f 18/113/37 16/114/37 14/86/37
f 70/90/37 66/92/37 14/86/37
f 66/92/37 62/76/37 14/86/37
f 46/77/37 42/102/37 30/78/37
f 42/102/37 38/104/37 30/78/37
f 38/104/37 34/106/37 30/78/37
f 22/111/37 18/113/37 30/78/37
f 18/113/37 14/86/37 30/78/37
f 62/76/37 54/97/37 46/77/37
f 14/86/37 62/76/37 30/78/37
f 70/79/38 72/81/38 71/80/38
f 72/81/39 10/115/39 9/82/39
f 71/116/42 9/117/42 11/118/42
f 11/118/40 13/119/40 15/120/40
f 15/120/40 17/121/40 19/122/40
f 19/122/40 21/123/40 15/120/40
f 21/123/40 23/83/40 15/120/40
f 23/83/40 25/124/40 27/125/40
f 27/125/40 29/126/40 23/83/40
f 29/126/40 31/127/40 23/83/40
f 31/127/40 33/128/40 39/84/40
f 33/128/40 35/129/40 39/84/40
f 35/129/40 37/130/40 39/84/40
f 39/84/42 41/131/42 43/132/42
f 43/132/40 45/133/40 47/134/40
f 47/134/40 49/135/40 51/136/40
f 51/136/40 53/137/40 55/85/40
f 55/85/40 57/138/40 59/139/40
f 59/139/40 61/140/40 63/141/40
f 63/141/40 65/142/40 71/116/40
f 65/142/40 67/143/40 71/116/40
f 67/143/42 69/144/42 71/116/42
f 71/116/40 11/118/40 15/120/40
f 39/84/40 43/132/40 55/85/40
f 43/132/40 47/134/40 55/85/40
f 47/134/40 51/136/40 55/85/40
f 55/85/40 59/139/40 71/116/40
f 59/139/40 63/141/40 71/116/40
f 71/116/40 15/120/40 23/83/40
f 23/83/40 31/127/40 39/84/40
f 71/116/40 23/83/40 55/85/40
o Cube.001
v 20.518738 13.397426 15.042455
v 20.518738 13.401808 14.642479
v 20.518738 4.357801 14.943413
v 20.518738 4.362184 14.543437
v -19.481262 13.397426 15.042455
v -19.481262 13.401808 14.642479
v -19.481262 4.357801 14.943413
v -19.481262 4.362184 14.543437
vt 1.086858 0.500000
vt 0.695619 0.891239
vt 0.695619 0.500000
vt 0.304381 1.282477
vt 0.304381 0.891239
vt 0.695619 -0.282477
vt 0.304381 0.108761
vt 0.304381 -0.282477
vt 0.304381 0.500000
vt -0.086858 0.891239
vt -0.086858 0.500000
vt 0.695619 0.108761
vt 1.086858 0.891239
vt 0.695619 1.282477
vn 0.0000 -0.0110 0.9999
vn 0.0000 -0.9999 -0.0110
vn -1.0000 0.0000 0.0000
vn 0.0000 0.0110 -0.9999
vn 1.0000 0.0000 0.0000
vn 0.0000 0.9999 0.0110
vn 0.0000 0.9999 0.0109
usemtl Material
s off
f 77/145/43 75/146/43 73/147/43
f 75/146/44 80/148/44 76/149/44
f 79/150/45 78/151/45 80/152/45
f 74/153/46 80/154/46 78/155/46
f 73/147/47 76/149/47 74/153/47
f 77/156/48 74/153/48 78/151/48
f 77/145/43 79/157/43 75/146/43
f 75/146/44 79/158/44 80/148/44
f 79/150/45 77/156/45 78/151/45
f 74/153/46 76/149/46 80/154/46
f 73/147/47 75/146/47 76/149/47
f 77/156/49 73/147/49 74/153/49
