# Blender v2.81 (sub 16) OBJ File: 'untitled.blend'
# www.blender.org
mtllib untitled.mtl
o Cube
v 99.858086 10.659710 1.136983
v 99.858086 10.633198 3.133969
v 99.858086 -112.509155 -0.498060
v 99.858086 -112.535660 1.498925
v -99.858086 10.659710 1.136983
v -99.858086 10.633198 3.133969
v -99.858086 -112.509155 -0.498060
v -99.858086 -112.535660 1.498925
vt 1.086858 0.500000
vt 0.695619 0.500000
vt 0.695619 0.891239
vt 0.304381 0.891239
vt 0.304381 1.282477
vt 0.695619 -0.282477
vt 0.304381 -0.282477
vt 0.304381 0.108761
vt 0.304381 0.500000
vt -0.086858 0.500000
vt -0.086858 0.891239
vt 0.695619 0.108761
vt 1.086858 0.891239
vt 0.695619 1.282477
vn 0.0000 0.0133 -0.9999
vn 0.0000 -0.9999 -0.0133
vn -1.0000 0.0000 0.0000
vn 0.0000 -0.0133 0.9999
vn 1.0000 0.0000 0.0000
vn 0.0000 0.9999 0.0133
usemtl Material
s off
f 5/1/1 1/2/1 3/3/1
f 3/3/2 4/4/2 8/5/2
f 7/6/3 8/7/3 6/8/3
f 2/9/4 6/10/4 8/11/4
f 1/2/5 2/9/5 4/4/5
f 5/12/6 6/8/6 2/9/6
f 5/1/1 3/3/1 7/13/1
f 3/3/2 8/5/2 7/14/2
f 7/6/3 6/8/3 5/12/3
f 2/9/4 8/11/4 4/4/4
f 1/2/5 4/4/5 3/3/5
f 5/12/6 2/9/6 1/2/6
o Cylinder
v -5.352724 2.605594 1.350388
v -5.352724 2.776565 -11.528948
v -4.886730 2.651487 1.350997
v -4.886730 2.822458 -11.528338
v -4.438643 2.787400 1.352801
v -4.438643 2.958371 -11.526534
v -4.025685 3.008112 1.355731
v -4.025685 3.179083 -11.523603
v -3.663724 3.305140 1.359674
v -3.663724 3.476110 -11.519661
v -3.366670 3.667069 1.364479
v -3.366670 3.838040 -11.514856
v -3.145939 4.079991 1.369960
v -3.145939 4.250962 -11.509375
v -3.010014 4.528038 1.375908
v -3.010014 4.699008 -11.503428
v -2.964117 4.993991 1.382093
v -2.964117 5.164961 -11.497242
v -3.010013 5.459944 1.388279
v -3.010013 5.630915 -11.491056
v -3.145939 5.907990 1.394227
v -3.145939 6.078961 -11.485109
v -3.366670 6.320913 1.399708
v -3.366670 6.491884 -11.479628
v -3.663724 6.682842 1.404512
v -3.663724 6.853813 -11.474823
v -4.025685 6.979870 1.408455
v -4.025685 7.150841 -11.470881
v -4.438644 7.200582 1.411386
v -4.438644 7.371552 -11.467950
v -4.886731 7.336495 1.413190
v -4.886731 7.507466 -11.466146
v -5.352725 7.382387 1.413799
v -5.352725 7.553358 -11.465536
v -5.818719 7.336495 1.413190
v -5.818719 7.507466 -11.466146
v -6.266806 7.200581 1.411386
v -6.266806 7.371552 -11.467950
v -6.679764 6.979869 1.408455
v -6.679764 7.150840 -11.470881
v -7.041725 6.682841 1.404512
v -7.041725 6.853812 -11.474823
v -7.338779 6.320911 1.399708
v -7.338779 6.491882 -11.479628
v -7.559510 5.907989 1.394227
v -7.559510 6.078959 -11.485109
v -7.695435 5.459942 1.388279
v -7.695435 5.630913 -11.491056
v -7.741331 4.993989 1.382093
v -7.741331 5.164959 -11.497242
v -7.695434 4.528036 1.375908
v -7.695434 4.699006 -11.503428
v -7.559508 4.079988 1.369960
v -7.559508 4.250959 -11.509375
v -7.338777 3.667067 1.364479
v -7.338777 3.838037 -11.514856
v -7.041722 3.305138 1.359674
v -7.041722 3.476108 -11.519661
v -6.679760 3.008110 1.355731
v -6.679760 3.179081 -11.523604
v -6.266801 2.787399 1.352801
v -6.266801 2.958370 -11.526534
v -5.818715 2.651486 1.350997
v -5.818715 2.822457 -11.528338
vt 1.401665 1.200832
vt 1.345311 0.299168
vt 1.401665 0.299168
vt 1.345311 1.200832
vt 1.288957 0.299168
vt 1.288957 1.200832
vt 1.232603 0.299168
vt 1.232603 1.200832
vt 1.176249 0.299168
vt 1.176249 1.200832
vt 1.119895 0.299168
vt 1.119895 1.200832
vt 1.063541 0.299168
vt 1.063541 1.200832
vt 1.007187 0.299168
vt 1.007187 1.200832
vt 0.950833 0.299168
vt 0.950833 1.200832
vt 0.894478 0.299168
vt 0.894478 1.200832
vt 0.838124 0.299168
vt 0.838124 1.200832
vt 0.781770 0.299168
vt 0.781770 1.200832
vt 0.725416 0.299168
vt 0.725416 1.200832
vt 0.669062 0.299168
vt 0.669062 1.200832
vt 0.612708 0.299168
vt 0.612708 1.200832
vt 0.556354 0.299168
vt 0.556354 1.200832
vt 0.500000 0.299168
vt 0.500000 1.200832
vt 0.443646 0.299168
vt 0.443646 1.200832
vt 0.387292 0.299168
vt 0.387292 1.200832
vt 0.330938 0.299168
vt 0.330938 1.200832
vt 0.274584 0.299168
vt 0.274584 1.200832
vt 0.218230 0.299168
vt 0.218230 1.200832
vt 0.161876 0.299168
vt 0.161876 1.200832
vt 0.105522 0.299168
vt 0.105522 1.200832
vt 0.049167 0.299168
vt 0.049167 1.200832
vt -0.007187 0.299168
vt -0.007187 1.200832
vt -0.063541 0.299168
vt -0.063541 1.200832
vt -0.119895 0.299168
vt -0.119895 1.200832
vt -0.176249 0.299168
vt -0.176249 1.200832
vt -0.232603 0.299168
vt -0.232603 1.200832
vt -0.288957 0.299168
vt 0.028269 0.341844
vt 0.158156 0.028269
vt 0.471731 0.158156
vt -0.288957 1.200832
vt -0.345311 0.299168
vt -0.345311 1.200832
vt -0.401665 0.299168
vt 0.985388 0.296822
vt 0.796822 0.014612
vt 0.514611 0.203179
vt 0.341844 0.471731
vt 0.296822 0.485388
vt 0.250000 0.490000
vt 0.203179 0.485389
vt 0.158156 0.471731
vt 0.116663 0.449553
vt 0.080295 0.419706
vt 0.050447 0.383337
vt 0.014612 0.296822
vt 0.010000 0.250000
vt 0.014611 0.203179
vt 0.028269 0.158156
vt 0.050447 0.116663
vt 0.080294 0.080294
vt 0.116663 0.050447
vt 0.203178 0.014612
vt 0.250000 0.010000
vt 0.296822 0.014612
vt 0.341844 0.028269
vt 0.383337 0.050447
vt 0.419706 0.080294
vt 0.449553 0.116663
vt 0.485388 0.203178
vt 0.490000 0.250000
vt 0.485388 0.296822
vt 0.471731 0.341844
vt 0.449553 0.383337
vt 0.419706 0.419706
vt 0.383337 0.449553
vt -0.401665 1.200832
vt 0.703179 0.485389
vt 0.750000 0.490000
vt 0.796822 0.485388
vt 0.841844 0.471731
vt 0.883337 0.449553
vt 0.919706 0.419706
vt 0.949553 0.383337
vt 0.971731 0.341844
vt 0.990000 0.250000
vt 0.985388 0.203178
vt 0.971731 0.158156
vt 0.949553 0.116663
vt 0.919706 0.080294
vt 0.883337 0.050447
vt 0.841844 0.028269
vt 0.750000 0.010000
vt 0.703178 0.014612
vt 0.658156 0.028269
vt 0.616663 0.050447
vt 0.580294 0.080294
vt 0.550447 0.116663
vt 0.528269 0.158156
vt 0.510000 0.250000
vt 0.514612 0.296822
vt 0.528269 0.341844
vt 0.550447 0.383337
vt 0.580295 0.419706
vt 0.616663 0.449553
vt 0.658156 0.471731
vn 0.0980 -0.9951 -0.0132
vn 0.2903 -0.9569 -0.0127
vn 0.4714 -0.8818 -0.0117
vn 0.6344 -0.7729 -0.0103
vn 0.7730 -0.6343 -0.0084
vn 0.8819 -0.4714 -0.0063
vn 0.9569 -0.2903 -0.0039
vn 0.9952 -0.0980 -0.0013
vn 0.9952 0.0980 0.0013
vn 0.9569 0.2903 0.0039
vn 0.8819 0.4714 0.0063
vn 0.7730 0.6343 0.0084
vn 0.6344 0.7729 0.0103
vn 0.4714 0.8818 0.0117
vn 0.2903 0.9569 0.0127
vn 0.0980 0.9951 0.0132
vn -0.0980 0.9951 0.0132
vn -0.2903 0.9569 0.0127
vn -0.4714 0.8818 0.0117
vn -0.6344 0.7729 0.0103
vn -0.7730 0.6343 0.0084
vn -0.8819 0.4714 0.0063
vn -0.9569 0.2903 0.0039
vn -0.9952 0.0980 0.0013
vn -0.9952 -0.0980 -0.0013
vn -0.9569 -0.2903 -0.0039
vn -0.8819 -0.4714 -0.0063
vn -0.7730 -0.6343 -0.0084
vn -0.6344 -0.7729 -0.0103
vn -0.4714 -0.8818 -0.0117
vn 0.0000 0.0133 -0.9999
vn -0.2903 -0.9569 -0.0127
vn -0.0980 -0.9951 -0.0132
vn 0.0000 -0.0133 0.9999
usemtl Material.001
s off
f 10/15/7 11/16/7 9/17/7
f 12/18/8 13/19/8 11/16/8
f 14/20/9 15/21/9 13/19/9
f 16/22/10 17/23/10 15/21/10
f 18/24/11 19/25/11 17/23/11
f 20/26/12 21/27/12 19/25/12
f 22/28/13 23/29/13 21/27/13
f 24/30/14 25/31/14 23/29/14
f 26/32/15 27/33/15 25/31/15
f 28/34/16 29/35/16 27/33/16
f 30/36/17 31/37/17 29/35/17
f 32/38/18 33/39/18 31/37/18
f 34/40/19 35/41/19 33/39/19
f 36/42/20 37/43/20 35/41/20
f 38/44/21 39/45/21 37/43/21
f 40/46/22 41/47/22 39/45/22
f 42/48/23 43/49/23 41/47/23
f 44/50/24 45/51/24 43/49/24
f 46/52/25 47/53/25 45/51/25
f 48/54/26 49/55/26 47/53/26
f 50/56/27 51/57/27 49/55/27
f 52/58/28 53/59/28 51/57/28
f 54/60/29 55/61/29 53/59/29
f 56/62/30 57/63/30 55/61/30
f 58/64/31 59/65/31 57/63/31
f 60/66/32 61/67/32 59/65/32
f 62/68/33 63/69/33 61/67/33
f 64/70/34 65/71/34 63/69/34
f 66/72/35 67/73/35 65/71/35
f 68/74/36 69/75/36 67/73/36
f 62/76/37 46/77/37 30/78/37
f 70/79/38 71/80/38 69/75/38
f 72/81/39 9/82/39 71/80/39
f 23/83/40 39/84/40 55/85/40
f 10/15/7 12/18/7 11/16/7
f 12/18/8 14/20/8 13/19/8
f 14/20/9 16/22/9 15/21/9
f 16/22/10 18/24/10 17/23/10
f 18/24/11 20/26/11 19/25/11
f 20/26/12 22/28/12 21/27/12
f 22/28/13 24/30/13 23/29/13
f 24/30/14 26/32/14 25/31/14
f 26/32/15 28/34/15 27/33/15
f 28/34/16 30/36/16 29/35/16
f 30/36/17 32/38/17 31/37/17
f 32/38/18 34/40/18 33/39/18
f 34/40/19 36/42/19 35/41/19
f 36/42/20 38/44/20 37/43/20
f 38/44/21 40/46/21 39/45/21
f 40/46/22 42/48/22 41/47/22
f 42/48/23 44/50/23 43/49/23
f 44/50/24 46/52/24 45/51/24
f 46/52/25 48/54/25 47/53/25
f 48/54/26 50/56/26 49/55/26
f 50/56/27 52/58/27 51/57/27
f 52/58/28 54/60/28 53/59/28
f 54/60/29 56/62/29 55/61/29
f 56/62/30 58/64/30 57/63/30
f 58/64/31 60/66/31 59/65/31
f 60/66/32 62/68/32 61/67/32
f 62/68/33 64/70/33 63/69/33
f 64/70/34 66/72/34 65/71/34
f 66/72/35 68/74/35 67/73/35
f 68/74/36 70/79/36 69/75/36
f 14/86/37 12/87/37 10/88/37
f 10/88/37 72/89/37 14/86/37
f 72/89/37 70/90/37 14/86/37
f 70/90/37 68/91/37 66/92/37
f 66/92/37 64/93/37 62/76/37
f 62/76/37 60/94/37 58/95/37
f 58/95/37 56/96/37 62/76/37
f 56/96/37 54/97/37 62/76/37
f 54/97/37 52/98/37 46/77/37
f 52/98/37 50/99/37 46/77/37
f 50/99/37 48/100/37 46/77/37
f 46/77/37 44/101/37 42/102/37
f 42/102/37 40/103/37 38/104/37
f 38/104/37 36/105/37 34/106/37
f 34/106/37 32/107/37 30/78/37
f 30/78/37 28/108/37 26/109/37
f 26/109/37 24/110/37 30/78/37
f 24/110/37 22/111/37 30/78/37
f 22/111/37 20/112/37 18/113/37
f 18/113/37 16/114/37 14/86/37
f 70/90/37 66/92/37 14/86/37
f 66/92/37 62/76/37 14/86/37
f 46/77/37 42/102/37 30/78/37
f 42/102/37 38/104/37 30/78/37
f 38/104/37 34/106/37 30/78/37
f 22/111/37 18/113/37 30/78/37
f 18/113/37 14/86/37 30/78/37
f 62/76/37 54/97/37 46/77/37
f 14/86/37 62/76/37 30/78/37
f 70/79/38 72/81/38 71/80/38
f 72/81/39 10/115/39 9/82/39
f 71/116/40 9/117/40 11/118/40
f 11/118/40 13/119/40 15/120/40
f 15/120/40 17/121/40 19/122/40
f 19/122/40 21/123/40 15/120/40
f 21/123/40 23/83/40 15/120/40
f 23/83/40 25/124/40 27/125/40
f 27/125/40 29/126/40 23/83/40
f 29/126/40 31/127/40 23/83/40
f 31/127/40 33/128/40 39/84/40
f 33/128/40 35/129/40 39/84/40
f 35/129/40 37/130/40 39/84/40
f 39/84/40 41/131/40 43/132/40
f 43/132/40 45/133/40 47/134/40
f 47/134/40 49/135/40 51/136/40
f 51/136/40 53/137/40 55/85/40
f 55/85/40 57/138/40 59/139/40
f 59/139/40 61/140/40 63/141/40
f 63/141/40 65/142/40 71/116/40
f 65/142/40 67/143/40 71/116/40
f 67/143/40 69/144/40 71/116/40
f 71/116/40 11/118/40 15/120/40
f 39/84/40 43/132/40 55/85/40
f 43/132/40 47/134/40 55/85/40
f 47/134/40 51/136/40 55/85/40
f 55/85/40 59/139/40 71/116/40
f 59/139/40 63/141/40 71/116/40
f 71/116/40 15/120/40 23/83/40
f 23/83/40 31/127/40 39/84/40
f 71/116/40 23/83/40 55/85/40
o Cube.001
v 20.518736 10.954565 -7.262856
v 20.518736 10.554601 -7.268165
v 20.518736 10.834567 1.776515
v 20.518736 10.434603 1.771206
v -19.481264 10.954565 -7.262856
v -19.481264 10.554601 -7.268165
v -19.481264 10.834567 1.776515
v -19.481264 10.434603 1.771206
vt 1.086858 0.500000
vt 0.695619 0.891239
vt 0.695619 0.500000
vt 0.304381 1.282477
vt 0.304381 0.891239
vt 0.695619 -0.282477
vt 0.304381 0.108761
vt 0.304381 -0.282477
vt 0.304381 0.500000
vt -0.086858 0.891239
vt -0.086858 0.500000
vt 0.695619 0.108761
vt 1.086858 0.891239
vt 0.695619 1.282477
vn 0.0000 0.9999 0.0133
vn 0.0000 -0.0133 0.9999
vn -1.0000 -0.0000 0.0000
vn 0.0000 -0.9999 -0.0133
vn 1.0000 0.0000 0.0000
vn 0.0000 0.0133 -0.9999
usemtl Material
s off
f 77/145/41 75/146/41 73/147/41
f 75/146/42 80/148/42 76/149/42
f 79/150/43 78/151/43 80/152/43
f 74/153/44 80/154/44 78/155/44
f 73/147/45 76/149/45 74/153/45
f 77/156/46 74/153/46 78/151/46
f 77/145/41 79/157/41 75/146/41
f 75/146/42 79/158/42 80/148/42
f 79/150/43 77/156/43 78/151/43
f 74/153/44 76/149/44 80/154/44
f 73/147/45 75/146/45 76/149/45
f 77/156/46 73/147/46 74/153/46
